<svg width="6" height="7" viewBox="0 0 6 7" fill="none" xmlns="http://www.w3.org/2000/svg">
<g clip-path="url(#clip0_2042_676)">
<path d="M1.03394 0.9927C1.03394 0.859956 1.08667 0.732649 1.18053 0.638784C1.2744 0.54492 1.40171 0.492187 1.53445 0.492188H5.53855C5.67129 0.492188 5.7986 0.54492 5.89247 0.638784C5.98633 0.732649 6.03906 0.859956 6.03906 0.9927V4.9968C6.03906 5.12954 5.98633 5.25685 5.89247 5.35072C5.7986 5.44458 5.67129 5.49731 5.53855 5.49731C5.4058 5.49731 5.2785 5.44458 5.18463 5.35072C5.09077 5.25685 5.03804 5.12954 5.03804 4.9968V2.20094L0.887287 6.35169C0.792889 6.44286 0.666459 6.49331 0.535226 6.49217C0.403993 6.49103 0.278458 6.43839 0.185659 6.34559C0.0928603 6.25279 0.0402218 6.12726 0.0390814 5.99602C0.037941 5.86479 0.0883901 5.73836 0.179562 5.64396L4.33031 1.49321H1.53445C1.40171 1.49321 1.2744 1.44048 1.18053 1.34662C1.08667 1.25275 1.03394 1.12544 1.03394 0.9927Z" fill="white"/>
</g>
<defs>
<clipPath id="clip0_2042_676">
<rect width="6" height="6" fill="white" transform="translate(0 0.5)"/>
</clipPath>
</defs>
</svg>
