<svg width="40" height="40" viewBox="0 0 40 40" fill="none" xmlns="http://www.w3.org/2000/svg">
<g clip-path="url(#clip0_2042_743)">
<g filter="url(#filter0_d_2042_743)">
<path d="M18.119 0.000517282C10.4923 -0.0122363 3.41067 0.210527 3.49994 0.703667L5.37727 3.77644C10.4243 3.34282 15.2367 3.18552 20.0575 3.21783C24.5808 3.24759 29.1126 3.44484 33.84 3.73563L36.4927 0.906024C36.1101 0.332962 26.7659 0.0149714 18.119 0.000517282ZM18.4421 4.74571C14.2674 4.75592 10.0842 4.91491 5.71482 5.28307C3.86214 15.7972 2.8359 28.6273 5.24719 36.543L3 39.1788C13.8933 39.995 24.9804 40.2586 35.5319 39.7144L32.9897 36.6876C34.6307 27.658 34.1205 15.3295 33.0067 5.21845C28.6535 4.95827 24.4788 4.78483 20.3126 4.75167L31.7229 15.2275H25.6606C25.9837 17.1915 27.3951 19.8443 28.8831 22.3015C29.7248 23.6959 30.5835 25.0478 31.2382 26.2381C31.8929 27.4285 32.3945 28.4232 32.3945 29.4265C32.3945 31.8072 30.7876 33.7627 28.4239 35.0296C26.0602 36.305 22.8888 36.9937 19.3859 36.9937C15.8829 36.9937 12.7115 36.305 10.3478 35.0296C7.98412 33.7627 6.37716 31.8072 6.37716 29.4265C6.37716 28.4062 6.90431 27.4114 7.593 26.2041C8.2817 24.9968 9.17445 23.6364 10.0417 22.225C11.5721 19.7508 12.9665 17.081 13.1621 15.2275H6.46218L18.4421 4.74571ZM19.3773 5.96751L10.5433 13.6971H14.65L14.7095 14.3943C14.9391 17.1065 13.1026 20.1759 11.3426 23.0327C10.4583 24.4611 9.57407 25.813 8.92788 26.9608C8.2732 28.1001 7.90759 29.0864 7.90759 29.4265C7.90759 30.6679 8.50276 31.7647 9.61658 32.7085C14.2249 32.1303 16.5886 31.8072 18.6631 31.7392C18.7142 31.0165 18.8077 30.2938 18.9267 29.5966C15.8148 29.7921 12.9495 28.9589 10.1267 27.9556C11.3936 25.5069 13.7232 23.7979 15.8233 23.8064C16.2145 23.8064 16.5971 23.8574 16.9627 23.985C17.9149 24.2911 18.7737 26 19.3433 27.437C19.5304 26.5442 19.7089 25.779 19.7855 25.2178V25.2093C19.862 24.6822 19.6494 23.1687 19.3773 21.9189C19.1818 21.0176 18.9777 20.2269 18.8757 19.8528C18.3401 19.8528 17.8639 19.7508 17.5493 19.4277C15.3897 17.183 16.7926 13.0339 18.6461 10.7212C19.964 12.9148 21.6815 15.2785 23.4075 16.911C23.0334 18.1693 22.3532 19.1811 21.0353 19.6317C20.8568 19.6487 20.6357 19.6743 20.4146 19.7083C20.5337 20.1504 20.7037 20.8136 20.8738 21.5873C20.9843 22.0719 21.0863 22.5736 21.1714 23.0752C21.622 22.6586 22.1406 22.276 22.5658 22.259H22.6593C25.04 22.48 27.7352 24.7757 28.4154 28.1257C26.0773 27.0543 23.399 27.675 21.2819 25.5579C21.0438 27.1394 20.3806 29.52 20.2021 31.7477C22.2512 31.8157 24.6148 32.1388 29.1551 32.7085C30.2689 31.7647 30.8641 30.6679 30.8641 29.4265C30.8641 29.0694 30.5155 28.1001 29.8948 26.9778C29.2742 25.847 28.4324 24.5121 27.5737 23.0922C25.8647 20.2694 24.0622 17.2 24.0622 14.4623V13.6971H27.7947L19.3773 5.96751ZM19.3859 33.2441C17.4898 33.2441 15.4832 33.4992 11.6742 33.9838C13.6892 34.9106 16.393 35.4632 19.3859 35.4632C22.3787 35.4632 25.0825 34.9106 27.0975 33.9838C23.2885 33.4992 21.2819 33.2441 19.3859 33.2441Z" fill="white"/>
</g>
</g>
<defs>
<filter id="filter0_d_2042_743" x="-4" y="-13" width="53.4922" height="60" filterUnits="userSpaceOnUse" color-interpolation-filters="sRGB">
<feFlood flood-opacity="0" result="BackgroundImageFix"/>
<feColorMatrix in="SourceAlpha" type="matrix" values="0 0 0 0 0 0 0 0 0 0 0 0 0 0 0 0 0 0 127 0" result="hardAlpha"/>
<feOffset dx="3" dy="-3"/>
<feGaussianBlur stdDeviation="5"/>
<feComposite in2="hardAlpha" operator="out"/>
<feColorMatrix type="matrix" values="0 0 0 0 0 0 0 0 0 0 0 0 0 0 0 0 0 0 0.15 0"/>
<feBlend mode="normal" in2="BackgroundImageFix" result="effect1_dropShadow_2042_743"/>
<feBlend mode="normal" in="SourceGraphic" in2="effect1_dropShadow_2042_743" result="shape"/>
</filter>
<clipPath id="clip0_2042_743">
<rect width="40" height="40" fill="white"/>
</clipPath>
</defs>
</svg>
