<svg width="40" height="40" viewBox="0 0 40 40" fill="none" xmlns="http://www.w3.org/2000/svg">
<path d="M11.6667 26.6667C11.6667 27.5834 10.9167 28.3334 10 28.3334C9.08333 28.3334 8.33333 27.5834 8.33333 26.6667C8.33333 25.7501 9.08333 25.0001 10 25.0001C10.9167 25.0001 11.6667 25.7501 11.6667 26.6667ZM15 26.6667C14.0833 26.6667 13.3333 27.4167 13.3333 28.3334C13.3333 29.2501 14.0833 30.0001 15 30.0001C15.9167 30.0001 16.6667 29.2501 16.6667 28.3334C16.6667 27.4167 15.9167 26.6667 15 26.6667ZM6.66667 30.0001C5.75 30.0001 5 30.7501 5 31.6667C5 32.5834 5.75 33.3334 6.66667 33.3334C7.58333 33.3334 8.33333 32.5834 8.33333 31.6667C8.33333 30.7501 7.58333 30.0001 6.66667 30.0001ZM11.6667 31.6667C10.75 31.6667 10 32.4167 10 33.3334C10 34.2501 10.75 35.0001 11.6667 35.0001C12.5833 35.0001 13.3333 34.2501 13.3333 33.3334C13.3333 32.4167 12.5833 31.6667 11.6667 31.6667ZM25.55 4.53341L16.3333 16.0834L22.2333 21.9834L33.8 12.7834C35.3 11.5167 35.4167 9.23341 34.0167 7.83341L30.5 4.31674C29.1 2.91674 26.8167 3.03341 25.55 4.53341ZM13.9833 20.8334L17.5 24.3334C18.1667 25.0001 19.2333 25.0001 19.8833 24.3334L21.05 23.1667L15.1667 17.2667L13.9833 18.4501C13.6708 18.768 13.4957 19.196 13.4957 19.6417C13.4957 20.0875 13.6708 20.5155 13.9833 20.8334Z" fill="white"/>
</svg>
