<svg width="220" height="257" viewBox="0 0 220 257" fill="none" xmlns="http://www.w3.org/2000/svg">
<g clip-path="url(#clip0_237_6135)">
<path d="M145.67 90.907C145.67 90.907 89.4214 96.5137 59.9684 71.9694C30.5155 47.4253 37.2437 0.551426 37.2437 0.551426C37.2437 0.551426 93.4924 -5.05552 122.946 19.4888C152.399 44.0329 145.67 90.907 145.67 90.907Z" fill="#A0BC71"/>
<path d="M146.994 90.907C146.994 90.907 203.243 96.5137 232.696 71.9694C262.149 47.4253 255.42 0.551426 255.42 0.551426C255.42 0.551426 199.171 -5.05552 169.718 19.4888C140.265 44.0329 146.994 90.907 146.994 90.907Z" fill="#D2E3D6"/>
<path d="M0 133.626C0 123.523 8.18954 115.334 18.2917 115.334H274.375C284.477 115.334 292.667 123.523 292.667 133.626V170.209C292.667 180.311 284.477 188.501 274.375 188.501H18.2917C8.18954 188.501 0 180.311 0 170.209V133.626Z" fill="#D2E3D6"/>
<path d="M18.291 188.5H274.374L237.791 334.833H54.8744L18.291 188.5Z" fill="#D2E3D6"/>
</g>
<defs>
<clipPath id="clip0_237_6135">
<rect width="220" height="257" fill="white"/>
</clipPath>
</defs>
</svg>
