<svg width="46" height="40" viewBox="0 0 46 40" fill="none" xmlns="http://www.w3.org/2000/svg">
<g clip-path="url(#clip0_2042_2728)">
<g filter="url(#filter0_d_2042_2728)">
<path d="M35.9747 23.0773H21.2251L25.5346 18.7678C27.0926 19.5524 28.8093 19.9707 30.5537 19.9908C32.3095 19.9954 34.0324 19.515 35.5324 18.6024C40.0939 15.8409 42.538 9.44875 42.0707 1.50279C42.0487 1.12642 41.8893 0.77123 41.6228 0.504646C41.3562 0.238062 41.001 0.0786481 40.6246 0.0566689C32.6786 -0.410628 26.2865 2.03354 23.5231 6.59497C21.7251 9.56606 21.6789 13.1544 23.3577 16.5947L20.5905 19.362L18.2424 17.014C19.3963 14.4659 19.3136 11.8218 17.9751 9.61413C15.8848 6.1546 11.0926 4.31041 5.1543 4.65848C4.77858 4.68087 4.42411 4.84021 4.15797 5.10635C3.89183 5.37249 3.73249 5.72697 3.7101 6.10268C3.36011 12.0391 5.20622 16.8313 8.66768 18.9235C9.82564 19.6308 11.1569 20.0036 12.5137 20.0004C13.7447 19.9882 14.9589 19.7135 16.0752 19.1947L18.4155 21.5389L16.8771 23.0773H8.28307C7.87505 23.0773 7.48375 23.2394 7.19524 23.5279C6.90673 23.8164 6.74464 24.2077 6.74464 24.6157C6.74464 25.0237 6.90673 25.415 7.19524 25.7035C7.48375 25.992 7.87505 26.1541 8.28307 26.1541H10.1273L12.6676 37.5904C12.8158 38.2757 13.1952 38.8891 13.7422 39.3279C14.2891 39.7666 14.9702 40.0039 15.6714 40H28.5884C29.2893 40.0032 29.9701 39.7656 30.5169 39.327C31.0636 38.8884 31.4432 38.2753 31.5921 37.5904L34.1325 26.1541H35.9747C36.3827 26.1541 36.774 25.992 37.0626 25.7035C37.3511 25.415 37.5131 25.0237 37.5131 24.6157C37.5131 24.2077 37.3511 23.8164 37.0626 23.5279C36.774 23.2394 36.3827 23.0773 35.9747 23.0773Z" fill="white"/>
</g>
</g>
<defs>
<filter id="filter0_d_2042_2728" x="-3.33203" y="-13" width="58.459" height="60" filterUnits="userSpaceOnUse" color-interpolation-filters="sRGB">
<feFlood flood-opacity="0" result="BackgroundImageFix"/>
<feColorMatrix in="SourceAlpha" type="matrix" values="0 0 0 0 0 0 0 0 0 0 0 0 0 0 0 0 0 0 127 0" result="hardAlpha"/>
<feOffset dx="3" dy="-3"/>
<feGaussianBlur stdDeviation="5"/>
<feComposite in2="hardAlpha" operator="out"/>
<feColorMatrix type="matrix" values="0 0 0 0 0 0 0 0 0 0 0 0 0 0 0 0 0 0 0.15 0"/>
<feBlend mode="normal" in2="BackgroundImageFix" result="effect1_dropShadow_2042_2728"/>
<feBlend mode="normal" in="SourceGraphic" in2="effect1_dropShadow_2042_2728" result="shape"/>
</filter>
<clipPath id="clip0_2042_2728">
<rect width="44.8625" height="40" fill="white" transform="translate(0.667969)"/>
</clipPath>
</defs>
</svg>
