<svg width="41" height="40" viewBox="0 0 41 40" fill="none" xmlns="http://www.w3.org/2000/svg">
<g clip-path="url(#clip0_2042_2380)">
<g filter="url(#filter0_d_2042_2380)">
<path d="M4.04883 21.8226H10.7155H4.04883ZM29.0488 21.8226H37.3822H29.0488ZM5.71549 35.1726L5.73216 35.1543L5.71549 35.1726ZM10.7155 28.5059L10.7322 28.4876L10.7155 28.5059ZM15.7155 35.1726L15.7322 35.1543L15.7155 35.1726ZM20.7155 28.5059L20.7322 28.4876L20.7155 28.5059ZM25.7155 35.1726L25.7322 35.1543L25.7155 35.1726ZM30.7155 28.5059L30.7322 28.4876L30.7155 28.5059ZM35.7155 35.1726L35.7322 35.1543L35.7155 35.1726ZM15.7155 23.4893C15.7155 23.4893 17.2155 17.2543 20.7155 13.4893L15.7155 23.4893Z" fill="white"/>
<path d="M4.04883 21.8226H10.7155M29.0488 21.8226H37.3822M5.71549 35.1726L5.73216 35.1543M10.7155 28.5059L10.7322 28.4876M15.7155 35.1726L15.7322 35.1543M20.7155 28.5059L20.7322 28.4876M25.7155 35.1726L25.7322 35.1543M30.7155 28.5059L30.7322 28.4876M35.7155 35.1726L35.7322 35.1543M15.7155 23.4893C15.7155 23.4893 17.2155 17.2543 20.7155 13.4893" stroke="white" stroke-width="1.5" stroke-linecap="round" stroke-linejoin="round"/>
<path d="M27.693 5.55803L28.3163 12.0414C28.7213 16.2464 25.568 19.9914 21.363 20.3947C17.238 20.7914 13.4996 17.7764 13.103 13.6497C12.9121 11.6686 13.516 9.69273 14.7819 8.15683C16.0477 6.62093 17.8718 5.65075 19.853 5.4597L26.7646 4.79303C26.876 4.78224 26.9883 4.79352 27.0953 4.82623C27.2022 4.85894 27.3017 4.91245 27.3879 4.98367C27.4742 5.05489 27.5455 5.14244 27.5979 5.24128C27.6502 5.34013 27.6825 5.44834 27.693 5.5597" fill="white"/>
<path d="M27.693 5.55803L28.3163 12.0414C28.7213 16.2464 25.568 19.9914 21.363 20.3947C17.238 20.7914 13.4996 17.7764 13.103 13.6497C12.9121 11.6686 13.516 9.69273 14.7819 8.15683C16.0477 6.62093 17.8718 5.65075 19.853 5.4597L26.7646 4.79303C26.876 4.78224 26.9883 4.79352 27.0953 4.82623C27.2022 4.85894 27.3017 4.91245 27.3879 4.98367C27.4742 5.05489 27.5455 5.14244 27.5979 5.24128C27.6502 5.34013 27.6825 5.44834 27.693 5.5597" stroke="white" stroke-width="1.5" stroke-linecap="round" stroke-linejoin="round"/>
</g>
</g>
<defs>
<filter id="filter0_d_2042_2380" x="-3.70117" y="-8.96094" width="54.834" height="51.8838" filterUnits="userSpaceOnUse" color-interpolation-filters="sRGB">
<feFlood flood-opacity="0" result="BackgroundImageFix"/>
<feColorMatrix in="SourceAlpha" type="matrix" values="0 0 0 0 0 0 0 0 0 0 0 0 0 0 0 0 0 0 127 0" result="hardAlpha"/>
<feOffset dx="3" dy="-3"/>
<feGaussianBlur stdDeviation="5"/>
<feComposite in2="hardAlpha" operator="out"/>
<feColorMatrix type="matrix" values="0 0 0 0 0 0 0 0 0 0 0 0 0 0 0 0 0 0 0.15 0"/>
<feBlend mode="normal" in2="BackgroundImageFix" result="effect1_dropShadow_2042_2380"/>
<feBlend mode="normal" in="SourceGraphic" in2="effect1_dropShadow_2042_2380" result="shape"/>
</filter>
<clipPath id="clip0_2042_2380">
<rect width="40" height="40" fill="white" transform="translate(0.667969)"/>
</clipPath>
</defs>
</svg>
