<svg width="46" height="40" viewBox="0 0 46 40" fill="none" xmlns="http://www.w3.org/2000/svg">
<g clip-path="url(#clip0_2042_3646)">
<g filter="url(#filter0_d_2042_3646)">
<path d="M5.66602 0H23.4438L21.2216 20H7.88824L5.66602 0ZM12.3327 33.3333H16.7771V40H12.3327V33.3333ZM41.2216 0V26.6667H30.1105C30.0594 18.4867 30.5194 10.2089 41.2216 0ZM41.2216 26.6667V40H38.9994V33.3333M14.5549 20V33.3333V20Z" fill="white"/>
<path d="M41.2216 26.6667V0C30.5194 10.2089 30.0594 18.4867 30.1105 26.6667H41.2216ZM41.2216 26.6667V40H38.9994V33.3333M14.5549 20V33.3333M5.66602 0H23.4438L21.2216 20H7.88824L5.66602 0ZM12.3327 33.3333H16.7771V40H12.3327V33.3333Z" stroke="white" stroke-width="2" stroke-linecap="round" stroke-linejoin="round"/>
</g>
</g>
<defs>
<filter id="filter0_d_2042_3646" x="-2.33398" y="-14" width="57.5547" height="62" filterUnits="userSpaceOnUse" color-interpolation-filters="sRGB">
<feFlood flood-opacity="0" result="BackgroundImageFix"/>
<feColorMatrix in="SourceAlpha" type="matrix" values="0 0 0 0 0 0 0 0 0 0 0 0 0 0 0 0 0 0 127 0" result="hardAlpha"/>
<feOffset dx="3" dy="-3"/>
<feGaussianBlur stdDeviation="5"/>
<feComposite in2="hardAlpha" operator="out"/>
<feColorMatrix type="matrix" values="0 0 0 0 0 0 0 0 0 0 0 0 0 0 0 0 0 0 0.15 0"/>
<feBlend mode="normal" in2="BackgroundImageFix" result="effect1_dropShadow_2042_3646"/>
<feBlend mode="normal" in="SourceGraphic" in2="effect1_dropShadow_2042_3646" result="shape"/>
</filter>
<clipPath id="clip0_2042_3646">
<rect width="44.8625" height="40" fill="white" transform="translate(0.666016)"/>
</clipPath>
</defs>
</svg>
